# xmcd CD database file
#
# Track frame offsets:
#	187
#	17632
#	35845
#	53055
#	69577
#	86192
#	101217
#	119865
#	138075
#	156060
#
# Disc length: 2306 seconds
#
# Revision: 0
# Processed by: cddbd v1.5PL3 Copyright (c) Steve Scherf et al.
# Submitted via: CDex 1.51
#
DISCID=8d09000a
DTITLE=かわいさとみ - TYPE=B
DYEAR=1988
DGENRE=Pop
TTITLE0=14時のママ
TTITLE1=急がないとだめ [Perds Pas Ton Temps]
TTITLE2=わたしはなんでもしっている
TTITLE3=月影・SOINE・CLUB [Another Version]
TTITLE4=DANZON
TTITLE5=ロリータ・ゴー・ホーム [Lorita Go Home]
TTITLE6=あたまがいっぱい
TTITLE7=唇のパルティータ
TTITLE8=ジュテーム [Je T'aime…Moi Non Plus]
TTITLE9=パンセ [空の底]
EXTD=YEAR: 1988
EXTT0=
EXTT1=
EXTT2=
EXTT3=
EXTT4=
EXTT5=
EXTT6=
EXTT7=
EXTT8=
EXTT9=
PLAYORDER=
